<?xml version="1.0" encoding="utf-8"?>
<!-- Generator: Adobe Illustrator 16.0.0, SVG Export Plug-In . SVG Version: 6.00 Build 0)  -->
<!DOCTYPE svg PUBLIC "-//W3C//DTD SVG 1.1//EN" "http://www.w3.org/Graphics/SVG/1.1/DTD/svg11.dtd">
<svg version="1.1" id="Layer_1" xmlns="http://www.w3.org/2000/svg" xmlns:xlink="http://www.w3.org/1999/xlink" x="0px" y="0px"
	 width="1299.934px" height="2257.725px" viewBox="0 0 1299.934 2257.725" enable-background="new 0 0 1299.934 2257.725"
	 xml:space="preserve">
<g id="Landoretti">
	<path fill="#575756" d="M37.288,1900.657v166.983h101.817v14.763H19.978v-181.746H37.288z"/>
	<path fill="#575756" d="M156.917,1971.426c2.717-5.607,6.41-10.185,11.075-13.754c4.666-3.559,10.137-6.191,16.42-7.887
		c6.276-1.695,13.239-2.543,20.871-2.543c5.769,0,11.541,0.55,17.313,1.652c5.765,1.107,10.944,3.185,15.53,6.235
		c4.581,3.05,8.308,7.345,11.193,12.86c2.886,5.513,4.329,12.684,4.329,21.505v69.749c0,6.443,3.142,9.673,9.422,9.673
		c1.863,0,3.562-0.343,5.086-1.019v13.495c-1.867,0.332-3.521,0.592-4.96,0.757c-1.443,0.171-3.271,0.252-5.471,0.252
		c-4.077,0-7.348-0.547-9.807-1.653c-2.458-1.099-4.367-2.673-5.723-4.707c-1.358-2.038-2.252-4.458-2.672-7.251
		c-0.423-2.802-0.638-5.904-0.638-9.296h-0.507c-2.89,4.243-5.814,8.021-8.784,11.327c-2.971,3.312-6.276,6.067-9.926,8.271
		c-3.65,2.206-7.811,3.905-12.476,5.096c-4.666,1.185-10.224,1.782-16.672,1.782c-6.108,0-11.832-0.732-17.183-2.164
		c-5.345-1.439-10.01-3.729-13.999-6.871c-3.99-3.143-7.128-7.128-9.418-11.961c-2.291-4.842-3.433-10.571-3.433-17.191
		c0-9.166,2.032-16.328,6.108-21.512c4.07-5.17,9.453-9.114,16.16-11.831c6.704-2.711,14.255-4.623,22.655-5.729
		c8.402-1.097,16.931-2.158,25.588-3.181c3.39-0.343,6.361-0.764,8.911-1.271c2.543-0.51,4.661-1.398,6.36-2.677
		c1.691-1.265,3.009-3.009,3.944-5.216c0.932-2.203,1.401-5.092,1.401-8.657c0-5.429-0.89-9.881-2.672-13.358
		c-1.783-3.482-4.249-6.241-7.387-8.271c-3.138-2.041-6.788-3.442-10.946-4.205c-4.157-0.761-8.612-1.146-13.357-1.146
		c-10.185,0-18.5,2.421-24.948,7.261c-6.452,4.834-9.842,12.595-10.182,23.285h-16.038
		C152.595,1983.641,154.206,1977.02,156.917,1971.426z M237.103,2010.62c-1.016,1.874-2.97,3.229-5.853,4.072
		c-2.889,0.859-5.432,1.44-7.639,1.783c-6.788,1.188-13.786,2.252-21.001,3.185c-7.215,0.931-13.786,2.332-19.726,4.196
		c-5.943,1.869-10.816,4.545-14.637,8.021c-3.821,3.478-5.727,8.444-5.727,14.893c0,4.069,0.806,7.681,2.417,10.818
		s3.775,5.856,6.493,8.144c2.711,2.287,5.853,4.031,9.419,5.219c3.562,1.19,7.208,1.782,10.944,1.782
		c6.108,0,11.965-0.935,17.562-2.798c5.604-1.867,10.48-4.584,14.641-8.15c4.153-3.562,7.463-7.885,9.926-12.983
		c2.458-5.086,3.691-10.858,3.691-17.306v-20.875H237.103z"/>
	<path fill="#575756" d="M301.506,1951.056v22.653h0.507c3.055-7.971,8.483-14.377,16.291-19.214
		c7.803-4.836,16.377-7.253,25.708-7.253c9.166,0,16.84,1.188,23.039,3.559c6.192,2.378,11.16,5.73,14.893,10.059
		c3.73,4.322,6.364,9.632,7.892,15.909c1.523,6.282,2.294,13.318,2.294,21.129v84.505h-16.042v-81.965
		c0-5.6-0.512-10.816-1.527-15.652c-1.02-4.838-2.799-9.033-5.345-12.599c-2.546-3.563-5.982-6.368-10.312-8.402
		c-4.325-2.027-9.716-3.055-16.165-3.055c-6.447,0-12.178,1.146-17.183,3.437c-5.004,2.294-9.25,5.432-12.724,9.418
		c-3.482,3.985-6.199,8.742-8.146,14.259c-1.952,5.517-3.016,11.495-3.181,17.939v76.62h-16.038v-131.347H301.506z"/>
	<path fill="#575756" d="M523.212,2082.403v-24.945h-0.504c-1.702,4.25-4.202,8.145-7.509,11.709
		c-3.313,3.565-7.089,6.581-11.331,9.036c-4.241,2.463-8.781,4.371-13.614,5.727c-4.84,1.355-9.639,2.042-14.388,2.042
		c-10.014,0-18.707-1.828-26.086-5.477c-7.383-3.647-13.541-8.654-18.458-15.02c-4.924-6.357-8.574-13.74-10.945-22.139
		c-2.378-8.406-3.562-17.268-3.562-26.602c0-9.335,1.184-18.202,3.562-26.604c2.371-8.402,6.021-15.778,10.945-22.14
		c4.918-6.367,11.075-11.418,18.458-15.154c7.38-3.728,16.073-5.594,26.086-5.594c4.925,0,9.716,0.596,14.388,1.779
		c4.662,1.187,9.033,3.012,13.106,5.474c4.07,2.463,7.678,5.471,10.816,9.037c3.139,3.565,5.555,7.723,7.257,12.465h0.512v-75.341
		h16.034v181.746H523.212z M435.266,2036.968c1.614,6.7,4.161,12.693,7.635,17.947c3.475,5.264,7.93,9.544,13.366,12.861
		c5.432,3.298,11.964,4.955,19.6,4.955c8.49,0,15.656-1.657,21.512-4.955c5.856-3.317,10.599-7.598,14.255-12.861
		c3.643-5.254,6.276-11.247,7.887-17.947c1.611-6.7,2.424-13.442,2.424-20.233s-0.813-13.537-2.424-20.237
		c-1.611-6.7-4.245-12.689-7.887-17.946c-3.657-5.265-8.399-9.547-14.255-12.854c-5.855-3.318-13.022-4.968-21.512-4.968
		c-7.636,0-14.168,1.649-19.6,4.968c-5.436,3.307-9.891,7.589-13.366,12.854c-3.474,5.257-6.021,11.246-7.635,17.946
		c-1.611,6.7-2.417,13.446-2.417,20.237S433.654,2030.268,435.266,2036.968z"/>
	<path fill="#575756" d="M650.611,1952.836c7.719,3.736,14.213,8.748,19.474,15.021c5.261,6.276,9.246,13.621,11.965,22.017
		c2.711,8.398,4.069,17.358,4.069,26.86s-1.358,18.447-4.069,26.85c-2.719,8.402-6.704,15.748-11.965,22.018
		c-5.261,6.283-11.755,11.245-19.474,14.893c-7.723,3.648-16.587,5.477-26.601,5.477c-10.013,0-18.881-1.828-26.601-5.477
		c-7.72-3.647-14.214-8.609-19.468-14.893c-5.267-6.27-9.252-13.615-11.964-22.018c-2.718-8.402-4.077-17.348-4.077-26.85
		s1.358-18.462,4.077-26.86c2.711-8.396,6.697-15.74,11.964-22.017c5.254-6.273,11.748-11.285,19.468-15.021
		c7.719-3.728,16.587-5.594,26.601-5.594C634.023,1947.243,642.888,1949.109,650.611,1952.836z M603.902,1965.567
		c-5.771,3.223-10.563,7.475-14.381,12.725c-3.818,5.268-6.703,11.247-8.658,17.947c-1.95,6.71-2.921,13.537-2.921,20.496
		s0.971,13.782,2.921,20.482c1.955,6.711,4.84,12.689,8.658,17.95s8.609,9.506,14.381,12.731c5.77,3.226,12.477,4.833,20.108,4.833
		c7.639,0,14.343-1.607,20.115-4.833c5.765-3.226,10.563-7.471,14.381-12.731c3.816-5.261,6.696-11.239,8.651-17.95
		c1.947-6.7,2.928-13.523,2.928-20.482s-0.98-13.786-2.928-20.496c-1.955-6.7-4.835-12.68-8.651-17.947
		c-3.818-5.25-8.616-9.502-14.381-12.725c-5.772-3.222-12.477-4.837-20.115-4.837
		C616.378,1960.73,609.671,1962.345,603.902,1965.567z"/>
	<path fill="#575756" d="M724.815,1951.056v30.805h0.503c4.077-10.692,10.396-18.924,18.97-24.696
		c8.567-5.762,18.791-8.396,30.667-7.884v16.026c-7.292-0.332-13.91,0.642-19.852,2.932c-5.939,2.295-11.074,5.56-15.396,9.801
		c-4.329,4.242-7.684,9.292-10.06,15.148c-2.378,5.853-3.565,12.258-3.565,19.219v69.996h-16.033v-131.347H724.815z"/>
	<path fill="#575756" d="M797.483,2039.004c1.612,6.195,4.203,11.75,7.769,16.671c3.559,4.921,8.056,8.998,13.487,12.224
		c5.43,3.226,11.97,4.833,19.604,4.833c11.705,0,20.875-3.058,27.486-9.166c6.62-6.108,11.202-14.255,13.744-24.44h16.041
		c-3.396,14.942-9.635,26.477-18.709,34.625c-9.083,8.148-21.934,12.221-38.563,12.221c-10.356,0-19.31-1.828-26.857-5.477
		c-7.551-3.647-13.709-8.654-18.455-15.02c-4.752-6.357-8.275-13.74-10.566-22.139c-2.29-8.406-3.432-17.268-3.432-26.602
		c0-8.658,1.142-17.146,3.432-25.459c2.291-8.315,5.814-15.74,10.566-22.271c4.746-6.529,10.904-11.794,18.455-15.783
		c7.548-3.986,16.501-5.979,26.857-5.979c10.515,0,19.512,2.115,26.983,6.363c7.46,4.238,13.526,9.797,18.197,16.669
		c4.666,6.878,8.015,14.767,10.053,23.677s2.886,17.945,2.543,27.109H795.067C795.067,2026.829,795.873,2032.811,797.483,2039.004z
		 M876.906,1990c-1.951-5.594-4.708-10.556-8.274-14.889c-3.561-4.325-7.891-7.801-12.979-10.434
		c-5.092-2.635-10.864-3.948-17.309-3.948c-6.62,0-12.477,1.313-17.568,3.948c-5.089,2.633-9.415,6.108-12.98,10.434
		c-3.563,4.333-6.409,9.338-8.525,15.019c-2.121,5.69-3.523,11.499-4.202,17.438h85.019
		C879.918,2001.46,878.854,1995.604,876.906,1990z"/>
	<path fill="#575756" d="M969.945,1951.056v13.492h-26.731v88.581c0,5.264,0.722,9.38,2.166,12.346
		c1.442,2.974,5.05,4.626,10.821,4.963c4.578,0,9.163-0.245,13.744-0.764v13.496c-2.383,0-4.757,0.08-7.131,0.251
		c-2.375,0.172-4.75,0.26-7.124,0.26c-10.694,0-18.164-2.081-22.401-6.238c-4.246-4.157-6.281-11.841-6.108-23.039v-89.855H904.27
		v-13.492h22.911v-39.447h16.033v39.447H969.945z"/>
	<path fill="#575756" d="M1045.291,1951.056v13.492h-26.732v88.581c0,5.264,0.723,9.38,2.165,12.346
		c1.437,2.974,5.048,4.626,10.815,4.963c4.582,0,9.166-0.245,13.752-0.764v13.496c-2.382,0-4.758,0.08-7.132,0.251
		c-2.375,0.172-4.753,0.26-7.132,0.26c-10.685,0-18.156-2.081-22.394-6.238c-4.245-4.157-6.284-11.841-6.108-23.039v-89.855h-22.913
		v-13.492h22.913v-39.447h16.033v39.447H1045.291z"/>
	<path fill="#575756" d="M1084.738,1900.657v25.704h-16.037v-25.704H1084.738z M1084.738,1951.056v131.347h-16.037v-131.347
		H1084.738z"/>
</g>
<g id="art">
	<path fill="#23398B" d="M71.856,2124.565h24.804l51.287,133.16h-24.99l-12.493-35.249H57.311l-12.497,35.249H20.756
		L71.856,2124.565z M63.65,2204.76h40.656l-19.954-57.257h-0.56L63.65,2204.76z"/>
	<path fill="#23398B" d="M160.63,2124.565h63.595c14.671,0,25.673,3.17,33.011,9.513c7.334,6.34,11.004,15.17,11.004,26.482
		c0,6.34-0.931,11.594-2.798,15.758c-1.863,4.167-4.042,7.523-6.525,10.072c-2.491,2.55-4.946,4.382-7.37,5.499
		c-2.424,1.121-4.196,1.867-5.313,2.239v0.374c1.986,0.249,4.129,0.873,6.434,1.864c2.298,0.997,4.445,2.585,6.434,4.755
		c1.986,2.18,3.636,5.01,4.942,8.487c1.307,3.48,1.957,7.832,1.957,13.054c0,7.835,0.59,14.951,1.773,21.354
		c1.18,6.405,3.012,10.977,5.502,13.708h-24.993c-1.741-2.857-2.767-6.027-3.075-9.512c-0.312-3.479-0.466-6.838-0.466-10.07
		c0-6.091-0.375-11.345-1.121-15.758s-2.115-8.084-4.102-11.005c-1.993-2.921-4.697-5.063-8.115-6.434
		c-3.418-1.366-7.804-2.053-13.148-2.053h-34.314v54.831H160.63V2124.565z M183.942,2185.179h38.233
		c7.459,0,13.116-1.772,16.969-5.316c3.853-3.545,5.782-8.858,5.782-15.946c0-4.225-0.624-7.674-1.867-10.352
		c-1.244-2.672-2.952-4.756-5.127-6.248c-2.175-1.491-4.662-2.486-7.46-2.983c-2.795-0.494-5.688-0.746-8.672-0.746h-37.858
		V2185.179z"/>
	<path fill="#23398B" d="M275.886,2124.565h107.796v20.144h-42.335v113.017h-23.312v-113.017h-42.148V2124.565z"/>
</g>
<path id="L" fill="#009E9B" d="M120.354,1563.642v-25.52c50.597-5.352,83.388-14.374,98.402-27.074
	c11.696-9.901,21.383-36.513,21.383-65.308V182.485H0v1130.092v489.445h480.279h601.73v-238.381H240.14H120.354z"/>
<path id="canvas" fill="#23398B" d="M240.14,0v182.485h240.14h127.427v25.52c-50.611,2.689-84.528,10.983-101.753,24.853
	c-15.818,12.737-25.673,40.562-25.673,78.352v1198.08h371.444c95.63-2.43,162.056-12.277,199.034-29.603
	c43.049-20.153,84.749-71.646,125.083-154.493h34.977l-67.262,238.448h156.378V0H240.14z"/>
</svg>
